<svg version="1.1" xmlns="http://www.w3.org/2000/svg" xmlns:xlink="http://www.w3.org/1999/xlink" width="475.83681" height="133.27233" viewBox="0,0,475.83681,133.27233"><g transform="translate(-2.0816,-113.36384)"><g data-paper-data="{&quot;isPaintingLayer&quot;:true}" fill="#fffae4" fill-rule="nonzero" stroke="#000000" stroke-width="0" stroke-linecap="butt" stroke-linejoin="miter" stroke-miterlimit="10" stroke-dasharray="" stroke-dashoffset="0" style="mix-blend-mode: normal"><path d="M231.4,246.61229c-21.03077,0 -80.54398,-0.8618 -119.50203,-1.25458c-54.09988,0.29048 -66.78159,-1.61086 -84.46327,-9.71498c-16.86246,-8.33005 -8.76203,-26.40408 -8.0536,-34.24419c-1.70926,-9.6148 -21.65037,-20.67459 -16.43109,-49.28626c8.45113,-46.32842 119.16566,-38.2 209.05,-38.2c34.90251,0 90.54334,0.811 149.30284,1.73687c40.4633,0.63758 65.92215,126.57141 9.05374,129.40907c-37.97566,1.89494 -118.52362,1.55406 -138.95658,1.55406z"/><path d="M109.64342,245.05823c-56.86841,-2.83766 -31.40956,-128.77149 9.05374,-129.40907c58.7595,-0.92587 114.40033,-1.73687 149.30284,-1.73687c89.88435,0 200.59887,-8.12842 209.05,38.2c5.21928,28.61167 -14.72183,39.67146 -16.4311,49.28626c0.70843,7.8401 8.80887,25.91414 -8.0536,34.24419c-17.68167,8.10411 -30.36339,10.00546 -84.46327,9.71498c-38.95805,0.39278 -98.47127,1.25458 -119.50203,1.25458c-20.43296,0 -100.98093,0.34088 -138.95658,-1.55406z" data-paper-data="{&quot;index&quot;:null}"/></g></g></svg>